# xmcd
#
# Track frame offsets: 
#        150
#        28018
#        50012
#        68605
#        83804
#        111862
#        133673
#        155011
#        177082
#        202725
#        231537
#        249676
#        276386
#        294774
#        311965
#        334335
#
# Disc length: 4718 seconds
#
# Revision: 0
# Processed by: cddbd v1.5.2PL0 Copyright (c) Steve Scherf et al.
# Submitted via: ExactAudioCopy v1.0b2
#
DISCID=ef126c10
DTITLE=10cc - Meanwhile... (SHM-CD)
DYEAR=1992
DGENRE=Pop/Rock
TTITLE0=Woman In Love
TTITLE1=Wonderland
TTITLE2=Fill Her Up
TTITLE3=Something Special
TTITLE4=Welcome To Paradise
TTITLE5=The Stars Didn't Show
TTITLE6=Green Eyed Monster
TTITLE7=Charity Begins At Home
TTITLE8=Shine A Light In The Dark
TTITLE9=Don't Break The Promises
TTITLE10=Woman In Love (Radio Edit)
TTITLE11=Man With A Mission
TTITLE12=Welcome To Paradise (7" Edit)
TTITLE13=Don't
TTITLE14=Lost In Love
TTITLE15=Woman In Love (DJ Edit)
EXTD=
EXTT0=
EXTT1=
EXTT2=
EXTT3=
EXTT4=
EXTT5=
EXTT6=
EXTT7=
EXTT8=
EXTT9=
EXTT10=
EXTT11=
EXTT12=
EXTT13=
EXTT14=
EXTT15=
PLAYORDER=
